<svg xmlns="http://www.w3.org/2000/svg" viewBox="0 0 64 64">
  <defs>
    <linearGradient id="shell" x1="0" y1="0" x2="1" y2="1">
      <stop offset="0" stop-color="#34d399"/>
      <stop offset="1" stop-color="#047857"/>
    </linearGradient>
  </defs>
  <path d="M10 50c0-4 3-6 8-6h30c4 0 6 2 6 5s-2 5-6 5H16c-4 0-6-2-6-4z" fill="#065f46"/>
  <circle cx="38" cy="32" r="16" fill="url(#shell)"/>
  <path d="M38 32m-11 0a11 11 0 1 1 22 0a11 11 0 1 1-22 0" fill="none" stroke="#ecfdf5" stroke-width="2.5" stroke-linecap="round" stroke-dasharray="52 18"/>
  <path d="M38 32m-5.5 0a5.5 5.5 0 1 1 11 0a5.5 5.5 0 1 1-11 0" fill="none" stroke="#ecfdf5" stroke-width="2.5" stroke-linecap="round" stroke-dasharray="24 10"/>
  <path d="M14 44c0-8 2-16 4-20" stroke="#065f46" stroke-width="5" stroke-linecap="round" fill="none"/>
  <circle cx="17" cy="21" r="3" fill="#065f46"/>
  <circle cx="23" cy="23" r="3" fill="#065f46"/>
  <path d="M23 23c1 3 0 6-1 8" stroke="#065f46" stroke-width="4" stroke-linecap="round" fill="none"/>
</svg>
